<?xml version="1.0" encoding="utf-8"?>
<!-- Uploaded to: SVG Repo, www.svgrepo.com, Generator: SVG Repo Mixer Tools -->
<svg fill="#000000" width="800px" height="800px" viewBox="0 0 24 24" xmlns="http://www.w3.org/2000/svg">
<g data-name="Layer 2">
<g data-name="keypad">
<rect width="24" height="24" opacity="0"/>
<path d="M5 2a3 3 0 1 0 3 3 3 3 0 0 0-3-3z"/>
<path d="M12 2a3 3 0 1 0 3 3 3 3 0 0 0-3-3z"/>
<path d="M19 8a3 3 0 1 0-3-3 3 3 0 0 0 3 3z"/>
<path d="M5 9a3 3 0 1 0 3 3 3 3 0 0 0-3-3z"/>
<path d="M12 9a3 3 0 1 0 3 3 3 3 0 0 0-3-3z"/>
<path d="M19 9a3 3 0 1 0 3 3 3 3 0 0 0-3-3z"/>
<path d="M5 16a3 3 0 1 0 3 3 3 3 0 0 0-3-3z"/>
<path d="M12 16a3 3 0 1 0 3 3 3 3 0 0 0-3-3z"/>
<path d="M19 16a3 3 0 1 0 3 3 3 3 0 0 0-3-3z"/>
</g>
</g>
</svg>